<?xml version="1.0" ?><!DOCTYPE svg  PUBLIC '-//W3C//DTD SVG 1.1//EN'  'http://www.w3.org/Graphics/SVG/1.1/DTD/svg11.dtd'><svg enable-background="new 0 0 128 128" id="Layer_1" version="1.1" viewBox="0 0 128 128" xml:space="preserve" xmlns="http://www.w3.org/2000/svg" xmlns:xlink="http://www.w3.org/1999/xlink"><polygon fill="#FFFFFF" points="55.2,35.8 52,43 66.2,49.3 68.6,55.8 77.2,51.9 79.2,60.7 85.7,55.8 88.7,65.2 93.5,61.4   100.1,64.3 106.5,61.9 103.3,57.2 "/><path d="M55.2,35.8L52,43l14.2,6.3l1.6,4.5  c0.4,1.1,1.7,1.6,2.7,1.1l4.4-2c1.2-0.5,2.5,0.1,2.8,1.4l1.5,6.4l4.2-3.2c1.1-0.8,2.7-0.3,3.1,1l1.3,4c0.4,1.3,2.1,1.8,3.2,1l2.5-2  l6.6,2.9l4-1.5c1.2-0.5,1.7-1.9,1-3l-1.8-2.7L55.2,35.8z" fill="none" stroke="#3D3D3D" stroke-miterlimit="10" stroke-width="2"/><path d="M54.2,27.5c-6.5-2.9-14.2,0.1-17.1,6.6c-2.9,6.5,0.1,14.2,6.6,17.1c6.5,2.9,14.2-0.1,17.1-6.6  C63.7,38,60.8,30.4,54.2,27.5z M45.2,41.9c-1.9-0.9-2.8-3.1-2-5.1c0.9-1.9,3.1-2.8,5.1-2c1.9,0.9,2.8,3.1,2,5.1  C49.5,41.9,47.2,42.7,45.2,41.9z" fill="#FFFFFF"/><circle cx="49" cy="39.3" fill="none" r="12.9" stroke="#3D3D3D" stroke-miterlimit="10" stroke-width="2"/><path d="M50.7,65.2c3.7-2.8,4.7-10.2,4.7-10.2  c0-2.6,0.7-4.9,0.7-4.9" fill="none" stroke="#3D3D3D" stroke-miterlimit="10" stroke-width="2"/><polyline fill="none" points="62,77 62,66 58,66 58,73 " stroke="#3D3D3D" stroke-miterlimit="10" stroke-width="2"/><polyline fill="none" points="62,77 62,66 58,66 58,73 " stroke="#3D3D3D" stroke-miterlimit="10" stroke-width="2"/><polyline fill="#FFFFFF" points="62,79 62,105 54,105 54,89 44,89 44,105 28,105 28,79 "/><line fill="none" stroke="#2C3E50" stroke-linecap="round" stroke-linejoin="round" stroke-miterlimit="10" stroke-width="2" x1="34" x2="56" y1="79" y2="79"/><polyline fill="#E875AE" points="21.2,84 45.2,60 69.2,84 "/><path d="M45.7,34c-4,0-8.9,5.3-9.6,12.5  c-1,9.6,2.4,18.9,8.5,20.3" fill="none" stroke="#3D3D3D" stroke-miterlimit="10" stroke-width="2"/><polyline fill="none" points="44,61.2 45.2,60 69.2,84 " stroke="#3D3D3D" stroke-miterlimit="10" stroke-width="2"/><polyline fill="none" points="21.2,84 37.4,67.9 45.2,60 " stroke="#3D3D3D" stroke-miterlimit="10" stroke-width="2"/><polyline fill="none" points="62,83 62,105 54,105 54,89 44,89 44,105   28,105 28,83 " stroke="#3D3D3D" stroke-miterlimit="10" stroke-width="2"/><circle cx="46.8" cy="37.8" fill="none" r="3.9" stroke="#3D3D3D" stroke-miterlimit="10" stroke-width="2"/><ellipse cx="44.5" cy="66.8" fill="none" rx="1.6" ry="3.5" stroke="#3D3D3D" stroke-miterlimit="10" stroke-width="2"/></svg>